<mxfile host="65bd71144e">
    <diagram id="Gz92kaDBu5tP0qBZvZyI" name="ページ1">
        <mxGraphModel dx="1335" dy="914" grid="1" gridSize="10" guides="1" tooltips="1" connect="1" arrows="1" fold="1" page="1" pageScale="1" pageWidth="827" pageHeight="1169" math="0" shadow="0">
            <root>
                <mxCell id="0"/>
                <mxCell id="1" parent="0"/>
                <mxCell id="2" value="&lt;font color=&quot;#ffffff&quot; style=&quot;font-size: 20px;&quot; data-font-src=&quot;https://fonts.googleapis.com/css?family=Roboto&quot; face=&quot;Roboto&quot;&gt;Top Page&lt;/font&gt;" style="rounded=0;whiteSpace=wrap;html=1;fillColor=#006885;strokeColor=none;strokeWidth=0;" vertex="1" parent="1">
                    <mxGeometry y="110" width="825" height="50" as="geometry"/>
                </mxCell>
                <mxCell id="9" value="&lt;font color=&quot;#006885&quot;&gt;&lt;u&gt;Press Site&lt;/u&gt;&lt;/font&gt;" style="text;html=1;strokeColor=none;fillColor=none;align=left;verticalAlign=middle;whiteSpace=wrap;rounded=0;fontSize=20;fontColor=#FFFFFF;" vertex="1" parent="1">
                    <mxGeometry y="190" width="160" height="30" as="geometry"/>
                </mxCell>
                <mxCell id="10" value="" style="rounded=1;whiteSpace=wrap;html=1;fontSize=20;fontColor=#006885;fillColor=#E6F5F5;strokeWidth=0;arcSize=9;" vertex="1" parent="1">
                    <mxGeometry y="230" width="826" height="80" as="geometry"/>
                </mxCell>
                <mxCell id="11" value="&lt;font style=&quot;font-size: 16px;&quot; data-font-src=&quot;https://fonts.googleapis.com/css?family=Roboto&quot; face=&quot;Roboto&quot; color=&quot;#ffffff&quot;&gt;Billet Charge&lt;/font&gt;" style="rounded=0;whiteSpace=wrap;html=1;strokeWidth=0;fontSize=20;fontColor=#006885;fillColor=#006885;" vertex="1" parent="1">
                    <mxGeometry x="40" y="250" width="150" height="40" as="geometry"/>
                </mxCell>
                <mxCell id="13" value="&lt;font style=&quot;font-size: 16px;&quot; data-font-src=&quot;https://fonts.googleapis.com/css?family=Roboto&quot; face=&quot;Roboto&quot; color=&quot;#ffffff&quot;&gt;Press Operation&lt;/font&gt;" style="rounded=0;whiteSpace=wrap;html=1;strokeWidth=0;fontSize=20;fontColor=#006885;fillColor=#006885;" vertex="1" parent="1">
                    <mxGeometry x="240" y="250" width="150" height="40" as="geometry"/>
                </mxCell>
                <mxCell id="14" value="&lt;font style=&quot;font-size: 16px;&quot; data-font-src=&quot;https://fonts.googleapis.com/css?family=Roboto&quot; face=&quot;Roboto&quot; color=&quot;#ffffff&quot;&gt;Cutting Work&lt;/font&gt;" style="rounded=0;whiteSpace=wrap;html=1;strokeWidth=0;fontSize=20;fontColor=#006885;fillColor=#006885;" vertex="1" parent="1">
                    <mxGeometry x="630" y="250" width="150" height="40" as="geometry"/>
                </mxCell>
                <mxCell id="15" value="&lt;font style=&quot;font-size: 16px;&quot; data-font-src=&quot;https://fonts.googleapis.com/css?family=Roboto&quot; face=&quot;Roboto&quot; color=&quot;#ffffff&quot;&gt;Stretch&lt;/font&gt;" style="rounded=0;whiteSpace=wrap;html=1;strokeWidth=0;fontSize=20;fontColor=#006885;fillColor=#006885;" vertex="1" parent="1">
                    <mxGeometry x="440" y="250" width="150" height="40" as="geometry"/>
                </mxCell>
                <mxCell id="16" value="&lt;font color=&quot;#006885&quot;&gt;&lt;u&gt;Packing Site&lt;/u&gt;&lt;/font&gt;" style="text;html=1;strokeColor=none;fillColor=none;align=left;verticalAlign=middle;whiteSpace=wrap;rounded=0;fontSize=20;fontColor=#FFFFFF;" vertex="1" parent="1">
                    <mxGeometry x="1" y="360" width="160" height="30" as="geometry"/>
                </mxCell>
                <mxCell id="17" value="" style="rounded=1;whiteSpace=wrap;html=1;fontSize=20;fontColor=#006885;fillColor=#E6F5F5;strokeWidth=0;arcSize=9;" vertex="1" parent="1">
                    <mxGeometry x="1" y="400" width="826" height="80" as="geometry"/>
                </mxCell>
                <mxCell id="18" value="&lt;font style=&quot;font-size: 16px;&quot; data-font-src=&quot;https://fonts.googleapis.com/css?family=Roboto&quot; face=&quot;Roboto&quot; color=&quot;#ffffff&quot;&gt;Packing Work&lt;/font&gt;" style="rounded=0;whiteSpace=wrap;html=1;strokeWidth=0;fontSize=20;fontColor=#006885;fillColor=#006885;" vertex="1" parent="1">
                    <mxGeometry x="41" y="420" width="150" height="40" as="geometry"/>
                </mxCell>
                <mxCell id="19" value="&lt;font style=&quot;font-size: 16px;&quot; data-font-src=&quot;https://fonts.googleapis.com/css?family=Roboto&quot; face=&quot;Roboto&quot; color=&quot;#ffffff&quot;&gt;Go Warehouse&lt;/font&gt;" style="rounded=0;whiteSpace=wrap;html=1;strokeWidth=0;fontSize=20;fontColor=#006885;fillColor=#006885;" vertex="1" parent="1">
                    <mxGeometry x="241" y="420" width="150" height="40" as="geometry"/>
                </mxCell>
                <mxCell id="21" value="&lt;font style=&quot;font-size: 16px;&quot; data-font-src=&quot;https://fonts.googleapis.com/css?family=Roboto&quot; face=&quot;Roboto&quot; color=&quot;#ffffff&quot;&gt;View Packing&lt;/font&gt;" style="rounded=0;whiteSpace=wrap;html=1;strokeWidth=0;fontSize=20;fontColor=#006885;fillColor=#006885;" vertex="1" parent="1">
                    <mxGeometry x="441" y="420" width="150" height="40" as="geometry"/>
                </mxCell>
                <mxCell id="22" value="&lt;font color=&quot;#006885&quot;&gt;&lt;u&gt;Die Site&lt;/u&gt;&lt;/font&gt;" style="text;html=1;strokeColor=none;fillColor=none;align=left;verticalAlign=middle;whiteSpace=wrap;rounded=0;fontSize=20;fontColor=#FFFFFF;" vertex="1" parent="1">
                    <mxGeometry x="1" y="530" width="160" height="30" as="geometry"/>
                </mxCell>
                <mxCell id="23" value="" style="rounded=1;whiteSpace=wrap;html=1;fontSize=20;fontColor=#006885;fillColor=#E6F5F5;strokeWidth=0;arcSize=9;" vertex="1" parent="1">
                    <mxGeometry x="1" y="570" width="826" height="80" as="geometry"/>
                </mxCell>
                <mxCell id="24" value="&lt;font face=&quot;Roboto&quot; color=&quot;#ffffff&quot;&gt;&lt;span style=&quot;font-size: 16px;&quot;&gt;Die Status&lt;/span&gt;&lt;/font&gt;" style="rounded=0;whiteSpace=wrap;html=1;strokeWidth=0;fontSize=20;fontColor=#006885;fillColor=#006885;" vertex="1" parent="1">
                    <mxGeometry x="41" y="590" width="150" height="40" as="geometry"/>
                </mxCell>
                <mxCell id="25" value="&lt;font style=&quot;font-size: 16px;&quot; data-font-src=&quot;https://fonts.googleapis.com/css?family=Roboto&quot; face=&quot;Roboto&quot; color=&quot;#ffffff&quot;&gt;Nitriding&lt;/font&gt;" style="rounded=0;whiteSpace=wrap;html=1;strokeWidth=0;fontSize=20;fontColor=#006885;fillColor=#006885;" vertex="1" parent="1">
                    <mxGeometry x="241" y="590" width="150" height="40" as="geometry"/>
                </mxCell>
                <mxCell id="26" value="&lt;font style=&quot;font-size: 16px;&quot; data-font-src=&quot;https://fonts.googleapis.com/css?family=Roboto&quot; face=&quot;Roboto&quot; color=&quot;#ffffff&quot;&gt;Die History&lt;/font&gt;" style="rounded=0;whiteSpace=wrap;html=1;strokeWidth=0;fontSize=20;fontColor=#006885;fillColor=#006885;" vertex="1" parent="1">
                    <mxGeometry x="441" y="590" width="150" height="40" as="geometry"/>
                </mxCell>
            </root>
        </mxGraphModel>
    </diagram>
</mxfile>